# xmcd
#
# Track frame offsets:
# 150
# 13963
# 23043
# 37860
# 51140
# 63400
# 75935
# 89705
# 104688
# 117908
# 131598
# 144803
# 160310
# 174055
# 187383
# 200878
# 213070
# 224090
# 238665
# 255450
# 267698
# 281685
#
# Disc length: 3935 seconds
#
#
# Revision: 2
# Processed by: cddbd v1.5.2PL0 Copyright (c) Steve Scherf et al.
# Submitted via: FreeRIP 2.944 
#
DISCID=490f5d16
DTITLE=John Lee Hooker - Walking The Blues
DYEAR=1990
DGENRE=Blues
TTITLE0=Dreaming The Blues
TTITLE1=Hey boogie
TTITLE2=Just Me And My Telephone
TTITLE3=Ground Hog Blues
TTITLE4=High Priced Women
TTITLE5=Leave My Wife Alone
TTITLE6=Louise
TTITLE7=Ramblin' By Myself
TTITLE8=Union Station Blues
TTITLE9=Bluebird
TTITLE10=Down At The Landing
TTITLE11=Hey Baby
TTITLE12=I Don't Want Your Money
TTITLE13=Lonely Boy Boogie
TTITLE14=Love Blues
TTITLE15=Mad Man Blues
TTITLE16=Please Don't Go
TTITLE17=Sugar Mama
TTITLE18=The Journey
TTITLE19=Walkin' The Boogie
TTITLE20=Worried Life Blues
TTITLE21=Apologize
EXTD=
EXTT0=
EXTT1=
EXTT2=
EXTT3=
EXTT4=
EXTT5=
EXTT6=
EXTT7=
EXTT8=
EXTT9=
EXTT10=
EXTT11=
EXTT12=
EXTT13=
EXTT14=
EXTT15=
EXTT16=
EXTT17=
EXTT18=
EXTT19=
EXTT20=
EXTT21=
PLAYORDER=
